<?xml version="1.0" encoding="UTF-8" standalone="no"?>
<!DOCTYPE svg PUBLIC "-//W3C//DTD SVG 1.1//EN"
 "http://www.w3.org/Graphics/SVG/1.1/DTD/svg11.dtd">
<!-- Generated by graphviz version 2.26.3 (20100126.1600)
 -->
<!-- Title: G Pages: 1 -->
<svg width="1028pt" height="636pt"
 viewBox="0.00 0.00 1028.00 636.00" xmlns="http://www.w3.org/2000/svg" xmlns:xlink="http://www.w3.org/1999/xlink">
<g id="graph1" class="graph" transform="scale(1 1) rotate(0) translate(4 632)">
<title>G</title>
<polygon fill="white" stroke="white" points="-4,5 -4,-632 1025,-632 1025,5 -4,5"/>
<g id="graph2" class="cluster"><title>cluster_org</title>
<polyline fill="none" stroke="gray" points="20,-8 1000,-8 "/>
<path fill="none" stroke="gray" d="M1000,-8C1006,-8 1012,-14 1012,-20"/>
<polyline fill="none" stroke="gray" points="1012,-20 1012,-608 "/>
<path fill="none" stroke="gray" d="M1012,-608C1012,-614 1006,-620 1000,-620"/>
<polyline fill="none" stroke="gray" points="1000,-620 20,-620 "/>
<path fill="none" stroke="gray" d="M20,-620C14,-620 8,-614 8,-608"/>
<polyline fill="none" stroke="gray" points="8,-608 8,-20 "/>
<path fill="none" stroke="gray" d="M8,-20C8,-14 14,-8 20,-8"/>
<text text-anchor="middle" x="510" y="-606.1" font-family="Times Roman,serif" font-size="11.00" fill="gray">org</text>
</g>
<g id="graph3" class="cluster"><title>cluster_org\codeangel</title>
<polyline fill="none" stroke="gray" points="28,-16 992,-16 "/>
<path fill="none" stroke="gray" d="M992,-16C998,-16 1004,-22 1004,-28"/>
<polyline fill="none" stroke="gray" points="1004,-28 1004,-578 "/>
<path fill="none" stroke="gray" d="M1004,-578C1004,-584 998,-590 992,-590"/>
<polyline fill="none" stroke="gray" points="992,-590 28,-590 "/>
<path fill="none" stroke="gray" d="M28,-590C22,-590 16,-584 16,-578"/>
<polyline fill="none" stroke="gray" points="16,-578 16,-28 "/>
<path fill="none" stroke="gray" d="M16,-28C16,-22 22,-16 28,-16"/>
<text text-anchor="middle" x="510" y="-576.1" font-family="Times Roman,serif" font-size="11.00" fill="gray">codeangel</text>
</g>
<g id="graph4" class="cluster"><title>cluster_org\codeangel\security</title>
<polyline fill="none" stroke="gray" points="36,-24 984,-24 "/>
<path fill="none" stroke="gray" d="M984,-24C990,-24 996,-30 996,-36"/>
<polyline fill="none" stroke="gray" points="996,-36 996,-548 "/>
<path fill="none" stroke="gray" d="M996,-548C996,-554 990,-560 984,-560"/>
<polyline fill="none" stroke="gray" points="984,-560 36,-560 "/>
<path fill="none" stroke="gray" d="M36,-560C30,-560 24,-554 24,-548"/>
<polyline fill="none" stroke="gray" points="24,-548 24,-36 "/>
<path fill="none" stroke="gray" d="M24,-36C24,-30 30,-24 36,-24"/>
<text text-anchor="middle" x="510" y="-546.1" font-family="Times Roman,serif" font-size="11.00" fill="gray">security</text>
</g>
<g id="graph5" class="cluster"><title>cluster_org\codeangel\security\passwords</title>
<polyline fill="none" stroke="gray" points="44,-78 976,-78 "/>
<path fill="none" stroke="gray" d="M976,-78C982,-78 988,-84 988,-90"/>
<polyline fill="none" stroke="gray" points="988,-90 988,-518 "/>
<path fill="none" stroke="gray" d="M988,-518C988,-524 982,-530 976,-530"/>
<polyline fill="none" stroke="gray" points="976,-530 44,-530 "/>
<path fill="none" stroke="gray" d="M44,-530C38,-530 32,-524 32,-518"/>
<polyline fill="none" stroke="gray" points="32,-518 32,-90 "/>
<path fill="none" stroke="gray" d="M32,-90C32,-84 38,-78 44,-78"/>
<text text-anchor="middle" x="510" y="-516.1" font-family="Times Roman,serif" font-size="11.00" fill="gray">passwords</text>
</g>
<!-- \\org\\codeangel\\security\\passwords\\PronPassword -->
<g id="node5" class="node"><title>\\org\\codeangel\\security\\passwords\\PronPassword</title>
<a xlink:href="passwords.PronPassword.html" xlink:title="PronPassword" target="_parent">
<polygon fill="none" stroke="black" points="926,-500 828,-500 828,-464 926,-464 926,-500"/>
<text text-anchor="middle" x="877" y="-479.1" font-family="Courier,monospace" font-size="11.00">PronPassword</text>
</a>
</g>
<!-- \\org\\codeangel\\security\\passwords\\DefaultPasswordGenerator -->
<g id="node6" class="node"><title>\\org\\codeangel\\security\\passwords\\DefaultPasswordGenerator</title>
<a xlink:href="passwords.DefaultPasswordGenerator.html" xlink:title="DefaultPasswordGenerator" target="_parent">
<polygon fill="none" stroke="black" points="966,-446 788,-446 788,-410 966,-410 966,-446"/>
<text text-anchor="middle" x="877" y="-425.1" font-family="Courier,monospace" font-size="11.00">DefaultPasswordGenerator</text>
</a>
</g>
<!-- \\org\\codeangel\\security\\passwords\\BlowFishCryptPasswordGenerator -->
<g id="node9" class="node"><title>\\org\\codeangel\\security\\passwords\\BlowFishCryptPasswordGenerator</title>
<a xlink:href="passwords.BlowFishCryptPasswordGenerator.html" xlink:title="BlowFishCryptPasswordGenerator" target="_parent">
<polygon fill="none" stroke="black" points="701,-446 483,-446 483,-410 701,-410 701,-446"/>
<text text-anchor="middle" x="592" y="-425.1" font-family="Courier,monospace" font-size="11.00">BlowFishCryptPasswordGenerator</text>
</a>
</g>
<!-- \\org\\codeangel\\security\\passwords\\DefaultPasswordGenerator&#45;&gt;\\org\\codeangel\\security\\passwords\\BlowFishCryptPasswordGenerator -->
<g id="edge10" class="edge"><title>\\org\\codeangel\\security\\passwords\\DefaultPasswordGenerator&#45;&gt;\\org\\codeangel\\security\\passwords\\BlowFishCryptPasswordGenerator</title>
<path fill="none" stroke="black" d="M787.215,-428C763.232,-428 736.93,-428 711.618,-428"/>
<polygon fill="none" stroke="black" points="711.597,-424.5 701.597,-428 711.597,-431.5 711.597,-424.5"/>
</g>
<!-- \\org\\codeangel\\security\\passwords\\Sha256CryptPasswordGenerator -->
<g id="node7" class="node"><title>\\org\\codeangel\\security\\passwords\\Sha256CryptPasswordGenerator</title>
<a xlink:href="passwords.Sha256CryptPasswordGenerator.html" xlink:title="Sha256CryptPasswordGenerator" target="_parent">
<polygon fill="none" stroke="black" points="980,-338 774,-338 774,-302 980,-302 980,-338"/>
<text text-anchor="middle" x="877" y="-317.1" font-family="Courier,monospace" font-size="11.00">Sha256CryptPasswordGenerator</text>
</a>
</g>
<!-- \\org\\codeangel\\security\\passwords\\ShaCryptPasswordGenerator -->
<g id="node15" class="node"><title>\\org\\codeangel\\security\\passwords\\ShaCryptPasswordGenerator</title>
<a xlink:href="passwords.ShaCryptPasswordGenerator.html" xlink:title="«abstract»&lt;br/&gt;ShaCryptPasswordGenerator" target="_parent">
<polygon fill="none" stroke="black" points="685,-338 499,-338 499,-302 685,-302 685,-338"/>
<text text-anchor="start" x="558" y="-325.433" font-family="Courier,monospace" font-size="11.00">«abstract»</text>
<text text-anchor="start" x="507.5" y="-312.233" font-family="Courier,monospace" font-size="11.00">ShaCryptPasswordGenerator</text>
</a>
</g>
<!-- \\org\\codeangel\\security\\passwords\\Sha256CryptPasswordGenerator&#45;&gt;\\org\\codeangel\\security\\passwords\\ShaCryptPasswordGenerator -->
<g id="edge12" class="edge"><title>\\org\\codeangel\\security\\passwords\\Sha256CryptPasswordGenerator&#45;&gt;\\org\\codeangel\\security\\passwords\\ShaCryptPasswordGenerator</title>
<path fill="none" stroke="black" d="M773.706,-320C748.11,-320 720.685,-320 695.099,-320"/>
<polygon fill="none" stroke="black" points="695.016,-316.5 685.016,-320 695.016,-323.5 695.016,-316.5"/>
</g>
<!-- \\org\\codeangel\\security\\passwords\\SqliteWordList -->
<g id="node8" class="node"><title>\\org\\codeangel\\security\\passwords\\SqliteWordList</title>
<a xlink:href="passwords.SqliteWordList.html" xlink:title="SqliteWordList" target="_parent">
<polygon fill="none" stroke="black" points="932,-392 822,-392 822,-356 932,-356 932,-392"/>
<text text-anchor="middle" x="877" y="-371.1" font-family="Courier,monospace" font-size="11.00">SqliteWordList</text>
</a>
</g>
<!-- \\org\\codeangel\\security\\passwords\\WordList -->
<g id="node14" class="node"><title>\\org\\codeangel\\security\\passwords\\WordList</title>
<a xlink:href="passwords.WordList.html" xlink:title="WordList" target="_parent">
<polygon fill="none" stroke="black" points="627,-392 557,-392 557,-356 627,-356 627,-392"/>
<text text-anchor="middle" x="592" y="-371.1" font-family="Courier,monospace" font-size="11.00">WordList</text>
</a>
</g>
<!-- \\org\\codeangel\\security\\passwords\\SqliteWordList&#45;&gt;\\org\\codeangel\\security\\passwords\\WordList -->
<g id="edge20" class="edge"><title>\\org\\codeangel\\security\\passwords\\SqliteWordList&#45;&gt;\\org\\codeangel\\security\\passwords\\WordList</title>
<path fill="none" stroke="black" stroke-dasharray="1,5" d="M821.373,-374C767.835,-374 687.843,-374 637.856,-374"/>
<polygon fill="none" stroke="black" points="637.665,-370.5 627.665,-374 637.665,-377.5 637.665,-370.5"/>
</g>
<!-- \\org\\codeangel\\security\\passwords\\CryptPasswordGenerator -->
<g id="node10" class="node"><title>\\org\\codeangel\\security\\passwords\\CryptPasswordGenerator</title>
<a xlink:href="passwords.CryptPasswordGenerator.html" xlink:title="«abstract»&lt;br/&gt;CryptPasswordGenerator" target="_parent">
<polygon fill="none" stroke="black" points="410,-392 244,-392 244,-356 410,-356 410,-392"/>
<text text-anchor="start" x="293" y="-379.433" font-family="Courier,monospace" font-size="11.00">«abstract»</text>
<text text-anchor="start" x="252.5" y="-366.233" font-family="Courier,monospace" font-size="11.00">CryptPasswordGenerator</text>
</a>
</g>
<!-- \\org\\codeangel\\security\\passwords\\BlowFishCryptPasswordGenerator&#45;&gt;\\org\\codeangel\\security\\passwords\\CryptPasswordGenerator -->
<g id="edge14" class="edge"><title>\\org\\codeangel\\security\\passwords\\BlowFishCryptPasswordGenerator&#45;&gt;\\org\\codeangel\\security\\passwords\\CryptPasswordGenerator</title>
<path fill="none" stroke="black" d="M503.39,-409.944C476.589,-404.482 447.087,-398.471 420.007,-392.952"/>
<polygon fill="none" stroke="black" points="420.646,-389.511 410.149,-390.944 419.249,-396.37 420.646,-389.511"/>
</g>
<!-- \\org\\codeangel\\security\\passwords\\PasswordGenerator -->
<g id="node13" class="node"><title>\\org\\codeangel\\security\\passwords\\PasswordGenerator</title>
<a xlink:href="passwords.PasswordGenerator.html" xlink:title="PasswordGenerator" target="_parent">
<polygon fill="none" stroke="black" points="171,-392 41,-392 41,-356 171,-356 171,-392"/>
<text text-anchor="middle" x="106" y="-371.1" font-family="Courier,monospace" font-size="11.00">PasswordGenerator</text>
</a>
</g>
<!-- \\org\\codeangel\\security\\passwords\\CryptPasswordGenerator&#45;&gt;\\org\\codeangel\\security\\passwords\\PasswordGenerator -->
<g id="edge22" class="edge"><title>\\org\\codeangel\\security\\passwords\\CryptPasswordGenerator&#45;&gt;\\org\\codeangel\\security\\passwords\\PasswordGenerator</title>
<path fill="none" stroke="black" stroke-dasharray="1,5" d="M243.764,-374C223.446,-374 201.817,-374 181.863,-374"/>
<polygon fill="none" stroke="black" points="181.598,-370.5 171.597,-374 181.597,-377.5 181.598,-370.5"/>
</g>
<!-- \\org\\codeangel\\security\\passwords\\KoremutakePassword -->
<g id="node11" class="node"><title>\\org\\codeangel\\security\\passwords\\KoremutakePassword</title>
<a xlink:href="passwords.KoremutakePassword.html" xlink:title="KoremutakePassword" target="_parent">
<polygon fill="none" stroke="black" points="946,-284 808,-284 808,-248 946,-248 946,-284"/>
<text text-anchor="middle" x="877" y="-263.1" font-family="Courier,monospace" font-size="11.00">KoremutakePassword</text>
</a>
</g>
<!-- \\org\\codeangel\\security\\passwords\\PasswordUtils -->
<g id="node12" class="node"><title>\\org\\codeangel\\security\\passwords\\PasswordUtils</title>
<a xlink:href="passwords.PasswordUtils.html" xlink:title="PasswordUtils" target="_parent">
<polygon fill="none" stroke="black" points="929,-230 825,-230 825,-194 929,-194 929,-230"/>
<text text-anchor="middle" x="877" y="-209.1" font-family="Courier,monospace" font-size="11.00">PasswordUtils</text>
</a>
</g>
<!-- \\org\\codeangel\\security\\passwords\\ShaCryptPasswordGenerator&#45;&gt;\\org\\codeangel\\security\\passwords\\CryptPasswordGenerator -->
<g id="edge16" class="edge"><title>\\org\\codeangel\\security\\passwords\\ShaCryptPasswordGenerator&#45;&gt;\\org\\codeangel\\security\\passwords\\CryptPasswordGenerator</title>
<path fill="none" stroke="black" d="M503.39,-338.056C476.589,-343.518 447.087,-349.529 420.007,-355.048"/>
<polygon fill="none" stroke="black" points="419.249,-351.63 410.149,-357.056 420.646,-358.489 419.249,-351.63"/>
</g>
<!-- \\org\\codeangel\\security\\passwords\\PasswordStrength -->
<g id="node16" class="node"><title>\\org\\codeangel\\security\\passwords\\PasswordStrength</title>
<a xlink:href="passwords.PasswordStrength.html" xlink:title="PasswordStrength" target="_parent">
<polygon fill="none" stroke="black" points="939,-176 815,-176 815,-140 939,-140 939,-176"/>
<text text-anchor="middle" x="877" y="-155.1" font-family="Courier,monospace" font-size="11.00">PasswordStrength</text>
</a>
</g>
<!-- \\org\\codeangel\\security\\passwords\\Sha512CryptPasswordGenerator -->
<g id="node17" class="node"><title>\\org\\codeangel\\security\\passwords\\Sha512CryptPasswordGenerator</title>
<a xlink:href="passwords.Sha512CryptPasswordGenerator.html" xlink:title="Sha512CryptPasswordGenerator" target="_parent">
<polygon fill="none" stroke="black" points="980,-122 774,-122 774,-86 980,-86 980,-122"/>
<text text-anchor="middle" x="877" y="-101.1" font-family="Courier,monospace" font-size="11.00">Sha512CryptPasswordGenerator</text>
</a>
</g>
<!-- \\org\\codeangel\\security\\passwords\\Sha512CryptPasswordGenerator&#45;&gt;\\org\\codeangel\\security\\passwords\\ShaCryptPasswordGenerator -->
<g id="edge18" class="edge"><title>\\org\\codeangel\\security\\passwords\\Sha512CryptPasswordGenerator&#45;&gt;\\org\\codeangel\\security\\passwords\\ShaCryptPasswordGenerator</title>
<path fill="none" stroke="black" d="M792.257,-122.09C785.904,-124.681 779.741,-127.634 774,-131 701.728,-173.376 639.363,-252.414 609.973,-293.564"/>
<polygon fill="none" stroke="black" points="607.108,-291.553 604.21,-301.743 612.831,-295.585 607.108,-291.553"/>
</g>
<!-- \\org\\codeangel\\security\\TokenUtils -->
<g id="node18" class="node"><title>\\org\\codeangel\\security\\TokenUtils</title>
<a xlink:href="TokenUtils.html" xlink:title="TokenUtils" target="_parent">
<polygon fill="none" stroke="black" points="919,-68 835,-68 835,-32 919,-32 919,-68"/>
<text text-anchor="middle" x="877" y="-47.1" font-family="Courier,monospace" font-size="11.00">TokenUtils</text>
</a>
</g>
</g>
</svg>
